<?xml version="1.0" encoding="UTF-8" standalone="no"?>
<svg
   version="1.1"
   width="24"
   height="24"
   viewBox="0 0 24 24"
   id="svg4"
   sodipodi:docname="backspace.svg"
   inkscape:version="1.4.4 (dcaf3e7d9e, 2026-05-05)"
   xmlns:inkscape="http://www.inkscape.org/namespaces/inkscape"
   xmlns:sodipodi="http://sodipodi.sourceforge.net/DTD/sodipodi-0.dtd"
   xmlns="http://www.w3.org/2000/svg"
   xmlns:svg="http://www.w3.org/2000/svg">
  <defs
     id="defs8" />
  <sodipodi:namedview
     id="namedview6"
     pagecolor="#505050"
     bordercolor="#ffffff"
     borderopacity="1"
     inkscape:pageshadow="0"
     inkscape:pageopacity="0"
     inkscape:pagecheckerboard="1"
     showgrid="false"
     inkscape:zoom="13"
     inkscape:cx="7.6153846"
     inkscape:cy="22.730769"
     inkscape:window-width="1536"
     inkscape:window-height="792"
     inkscape:window-x="0"
     inkscape:window-y="0"
     inkscape:window-maximized="1"
     inkscape:current-layer="svg4"
     inkscape:showpageshadow="2"
     inkscape:deskcolor="#d1d1d1" />
  <path
     id="path3"
     style="fill:#e2e2e2"
     d="M 7 3 C 6.31 3 5.7701562 3.3508594 5.4101562 3.8808594 L 0 12 L 5.4101562 20.109375 C 5.7701562 20.639375 6.31 21 7 21 L 22 21 A 2 2 0 0 0 24 19 L 24 5 A 2 2 0 0 0 22 3 L 7 3 z M 10.410156 7 L 14 10.589844 L 17.589844 7 L 19 8.4101562 L 15.410156 12 L 19 15.589844 L 17.589844 17 L 14 13.410156 L 10.410156 17 L 9 15.589844 L 12.589844 12 L 9 8.4101562 L 10.410156 7 z " />
</svg>
